#!OML:ASF H:\ManfredETheater\Project 1\Capture day 1\Session 1\subject.ASF
:FULLY-SPECIFIED
:DEGREES
187
root 0.760764 15.9519 -23.5888 -159.327 -8.4213 171.601
lowerback 16.1574 -2.8692 -4.68154
upperback -1.25873 -4.69808 0.844375
thorax -10.0077 -1.97827 4.70771
lowerneck -16.4848 -1.6394 -4.12477
upperneck -3.36295 -0.67376 1.28414
head 1.77099 0.0749989 1.10062
rclavicle 1.49089e-014 -9.14409e-015
rhumerus -78.0043 0.775698 -85.1424
rradius 101.56
rwrist -4.4289
rhand -26.8667 9.93617
rfingers 7.12502
rthumb -0.291295 -20.0434
lclavicle 1.49089e-014 -9.14409e-015
lhumerus -29.5719 -37.2375 88.6937
lradius 131.528
lwrist -6.98773
lhand -26.5502 -17.3023
lfingers 7.12502
lthumb 0.0143254 12.6775
rfemur -67.3765 -7.11603 16.6679
rtibia 66.0961
rfoot -3.05619 -27.2023
rtoes 61.9908
lfemur 3.77643 -10.1027 -24.6733
ltibia 36.1938
lfoot 23.6752 -14.968
ltoes -10.7525
188
root 0.736668 15.9942 -23.9978 -158.974 -7.84507 171.611
lowerback 16.1999 -2.76935 -4.59339
upperback -1.22614 -4.5487 0.862364
thorax -10.017 -1.91188 4.64538
lowerneck -16.479 -1.53577 -4.11368
upperneck -3.69309 -0.494244 1.01046
head 1.65032 0.176367 1.01892
rclavicle -7.35503e-015 2.22639e-014
rhumerus -76.6113 -0.0505081 -85.2446
rradius 100.124
rwrist -4.32653
rhand -26.5951 9.66976
rfingers 7.12502
rthumb -0.0289953 -20.31
lclavicle -7.35503e-015 2.22639e-014
lhumerus -32.8758 -37.1519 91.3831
lradius 128.108
lwrist -5.3472
lhand -27.0675 -16.6655
lfingers 7.12502
lthumb -0.485247 13.3137
rfemur -66.4246 -6.32548 16.4363
rtibia 66.702
rfoot -3.57974 -28.3296
rtoes 61.8888
lfemur 2.74731 -10.6163 -24.917
ltibia 37.6613
lfoot 27.3205 -15.472
ltoes -5.70759
189
root 0.713462 16.035 -24.4037 -158.668 -7.32173 171.776
lowerback 16.2951 -2.66898 -4.4017
upperback -1.17442 -4.37541 0.932581
thorax -10.0404 -1.83792 4.57883
lowerneck -16.4672 -1.43722 -4.0738
upperneck -4.08002 -0.321657 0.730733
head 1.51043 0.278324 0.929398
rclavicle -2.00773e-014 -1.07344e-014
rhumerus -74.8919 -0.827429 -85.3528
rradius 98.6343
rwrist -4.0427
rhand -26.3617 9.35697
rfingers 7.12502
rthumb 0.19643 -20.6227
lclavicle -2.00773e-014 -1.07344e-014
lhumerus -35.668 -36.2739 93.8003
lradius 124.525
lwrist -2.73557
lhand -26.5176 -16.159
lfingers 7.12502
lthumb 0.0458649 13.8208
rfemur -65.3754 -5.4483 16.3567
rtibia 67.1456
rfoot -4.01459 -29.536
rtoes 61.7447
lfemur 1.41316 -10.8399 -24.9134
ltibia 39.7966
lfoot 29.5707 -16.0648
ltoes -0.471644
190
root 0.69144 16.0748 -24.8074 -158.419 -6.85268 172.091
lowerback 16.4379 -2.56461 -4.11666
upperback -1.09654 -4.17573 1.0529
thorax -10.0665 -1.75572 4.50973
lowerneck -16.4602 -1.35038 -4.01257
upperneck -4.50283 -0.164733 0.457758
head 1.36087 0.376136 0.83724
rclavicle -3.37934e-015 3.97569e-016
rhumerus -72.8707 -1.52769 -85.5005
rradius 97.1158
rwrist -3.77123
rhand -26.1645 8.95643
rfingers 7.12502
rthumb 0.386827 -21.023
lclavicle -3.37934e-015 3.97569e-016
lhumerus -37.9264 -34.7868 95.8858
lradius 120.554
lwrist -0.295598
lhand -26.1517 -16.0866
lfingers 7.12502
lthumb 0.399233 13.8927
rfemur -64.1919 -4.49683 16.4428
rtibia 67.4202
rfoot -4.38761 -30.7779
rtoes 61.5632
lfemur -0.175968 -10.7414 -24.6623
ltibia 42.5075
lfoot 30.5633 -16.5073
ltoes 4.48543
